<?xml version="1.0" encoding="UTF-8" standalone="no"?>
<!-- Created with Inkscape (http://www.inkscape.org/) -->

<svg
   width="210mm"
   height="297mm"
   viewBox="0 0 210 297"
   version="1.1"
   id="svg5"
   inkscape:version="1.1.2 (0a00cf5339, 2022-02-04, custom)"
   sodipodi:docname="CosmicPigeonLogo.svg"
   xmlns:inkscape="http://www.inkscape.org/namespaces/inkscape"
   xmlns:sodipodi="http://sodipodi.sourceforge.net/DTD/sodipodi-0.dtd"
   xmlns="http://www.w3.org/2000/svg"
   xmlns:svg="http://www.w3.org/2000/svg">
  <sodipodi:namedview
     id="namedview7"
     pagecolor="#ffffff"
     bordercolor="#666666"
     borderopacity="1.0"
     inkscape:pageshadow="2"
     inkscape:pageopacity="0.0"
     inkscape:pagecheckerboard="0"
     inkscape:document-units="mm"
     showgrid="false"
     inkscape:zoom="0.72248176"
     inkscape:cx="391.01333"
     inkscape:cy="564.72014"
     inkscape:window-width="1920"
     inkscape:window-height="1013"
     inkscape:window-x="0"
     inkscape:window-y="39"
     inkscape:window-maximized="1"
     inkscape:current-layer="layer1" />
  <defs
     id="defs2" />
  <g
     inkscape:label="Layer 1"
     inkscape:groupmode="layer"
     id="layer1">
    <rect
       style="fill:#ffffff;stroke:#0000ff;stroke-width:0.0458379"
       id="rect1603"
       width="119.15079"
       height="147.84109"
       x="38.611824"
       y="44.440022"
       ry="38.437469" />
    <g
       id="g189"
       transform="translate(-3.5608128,-31.149036)">
      <path
         style="fill:#eee0e4;stroke-width:0.149149"
         d="m 103.21175,233.26003 c 0.71778,-0.0273 1.89233,-0.0273 2.6101,0 0.71778,0.0273 0.13051,0.0497 -1.30505,0.0497 -1.43555,0 -2.02283,-0.0224 -1.30505,-0.0497 z m -4.250737,-0.13687 c 0.102539,-0.0414 0.270332,-0.0414 0.372871,0 0.10254,0.0414 0.01864,0.0752 -0.186435,0.0752 -0.20508,0 -0.288976,-0.0339 -0.186436,-0.0752 z m 10.738707,0 c 0.10254,-0.0414 0.27033,-0.0414 0.37287,0 0.10254,0.0414 0.0186,0.0752 -0.18643,0.0752 -0.20508,0 -0.28898,-0.0339 -0.18644,-0.0752 z m -12.668319,-0.15225 c 0.107666,-0.0431 0.236308,-0.0378 0.285869,0.0118 0.04956,0.0496 -0.03853,0.0848 -0.195758,0.0784 -0.17375,-0.007 -0.209091,-0.0425 -0.09011,-0.0901 z m 14.765719,0 c 0.10767,-0.0431 0.23631,-0.0378 0.28587,0.0118 0.0496,0.0496 -0.0385,0.0848 -0.19576,0.0784 -0.17375,-0.007 -0.20909,-0.0425 -0.0901,-0.0901 z M 93.818221,216.86137 c 0.145117,-0.0378 0.346467,-0.0353 0.447446,0.006 0.100978,0.0408 -0.01775,0.0718 -0.263849,0.0687 -0.246095,-0.003 -0.328715,-0.0365 -0.183597,-0.0743 z m 9.992959,0 c 0.14512,-0.0378 0.34647,-0.0353 0.44745,0.006 0.10098,0.0408 -0.0177,0.0718 -0.26385,0.0687 -0.24609,-0.003 -0.32871,-0.0365 -0.1836,-0.0743 z M 91.512899,216.7137 c 0.107666,-0.0431 0.236308,-0.0378 0.285869,0.0118 0.04956,0.0496 -0.03853,0.0848 -0.195758,0.0784 -0.173751,-0.007 -0.209091,-0.0425 -0.09011,-0.0901 z m 14.914871,0 c 0.10767,-0.0431 0.23631,-0.0378 0.28587,0.0118 0.0496,0.0496 -0.0385,0.0848 -0.19576,0.0784 -0.17375,-0.007 -0.20909,-0.0425 -0.0901,-0.0901 z m -16.704655,-0.14915 c 0.107666,-0.0431 0.236308,-0.0378 0.285868,0.0118 0.04956,0.0496 -0.03853,0.0848 -0.195757,0.0784 -0.173751,-0.007 -0.209092,-0.0425 -0.09011,-0.0901 z m 18.643585,0 c 0.10767,-0.0431 0.23631,-0.0378 0.28587,0.0118 0.0496,0.0496 -0.0385,0.0848 -0.19576,0.0784 -0.17375,-0.007 -0.20909,-0.0425 -0.0901,-0.0901 z m -60.992879,-5.52848 c -0.185521,-0.23656 -0.180246,-0.24184 0.05631,-0.0563 0.143556,0.11259 0.26101,0.23004 0.26101,0.26101 0,0.12276 -0.122479,0.0438 -0.317323,-0.20469 z m 113.968639,0.20469 c 0,-0.031 0.11745,-0.14842 0.26101,-0.26101 0.23656,-0.18552 0.24183,-0.18024 0.0563,0.0563 -0.19484,0.24844 -0.31732,0.32745 -0.31732,0.20469 z m -118.890546,-5.1266 c -0.185522,-0.23656 -0.180246,-0.24183 0.05631,-0.0563 0.143555,0.11258 0.26101,0.23004 0.26101,0.26101 0,0.12275 -0.12248,0.0437 -0.317323,-0.2047 z m 123.812456,0.2047 c 0,-0.031 0.11745,-0.14843 0.26101,-0.26101 0.23656,-0.18552 0.24183,-0.18025 0.0563,0.0563 -0.19484,0.24844 -0.31732,0.32745 -0.31732,0.2047 z m -38.76689,-2.71537 c 0.007,-0.17375 0.0425,-0.20909 0.0901,-0.0901 0.0431,0.10767 0.0378,0.23631 -0.0118,0.28587 -0.0496,0.0496 -0.0848,-0.0385 -0.0783,-0.19576 z m -0.2983,-2.98297 c 0.007,-0.17375 0.0425,-0.2091 0.0901,-0.0901 0.0431,0.10767 0.0378,0.23631 -0.0118,0.28587 -0.0496,0.0496 -0.0848,-0.0385 -0.0783,-0.19575 z m -0.14915,-1.64064 c 0.007,-0.17375 0.0425,-0.20909 0.0901,-0.0901 0.0431,0.10767 0.0378,0.23631 -0.0118,0.28587 -0.0496,0.0496 -0.0848,-0.0385 -0.0783,-0.19576 z m -0.14915,-1.78978 c 0.007,-0.17376 0.0425,-0.2091 0.0901,-0.0901 0.0431,0.10767 0.0378,0.23631 -0.0118,0.28587 -0.0496,0.0496 -0.0848,-0.0385 -0.0783,-0.19575 z m -0.14915,-2.08809 c 0.007,-0.17375 0.0425,-0.20909 0.0901,-0.0901 0.0431,0.10767 0.0378,0.23631 -0.0118,0.28587 -0.0496,0.0496 -0.0848,-0.0385 -0.0783,-0.19576 z m -0.13737,-2.29937 c 0,-0.20508 0.0339,-0.28898 0.0752,-0.18644 0.0414,0.10254 0.0414,0.27033 0,0.37287 -0.0414,0.10254 -0.0752,0.0187 -0.0752,-0.18643 z m -0.1381,-3.13213 c 0,-0.28711 0.0307,-0.40456 0.0682,-0.26101 0.0375,0.14356 0.0375,0.37847 0,0.52202 -0.0375,0.14356 -0.0682,0.0261 -0.0682,-0.26101 z m -0.006,-12.30476 c 0.003,-0.2461 0.0365,-0.32872 0.0743,-0.1836 0.0378,0.14512 0.0353,0.34647 -0.006,0.44744 -0.0409,0.10098 -0.0718,-0.0178 -0.0688,-0.26384 z m 0.14362,-2.61011 c 0,-0.20508 0.0339,-0.28897 0.0752,-0.18643 0.0414,0.10254 0.0414,0.27033 0,0.37287 -0.0414,0.10254 -0.0752,0.0186 -0.0752,-0.18644 z m 0.13738,-1.87678 c 0.007,-0.17375 0.0425,-0.2091 0.0901,-0.0901 0.0431,0.10766 0.0378,0.2363 -0.0118,0.28586 -0.0496,0.0496 -0.0848,-0.0385 -0.0783,-0.19575 z M 20.706996,158.26228 c 0.0072,-0.17375 0.0425,-0.20909 0.09011,-0.0901 0.04309,0.10767 0.03779,0.23631 -0.01178,0.28587 -0.04956,0.0496 -0.08481,-0.0385 -0.07833,-0.19576 z m 167.493994,0 c 0.007,-0.17375 0.0425,-0.20909 0.0901,-0.0901 0.0431,0.10767 0.0378,0.23631 -0.0118,0.28587 -0.0496,0.0496 -0.0848,-0.0385 -0.0784,-0.19576 z M 20.557847,156.7708 c 0.0072,-0.17375 0.0425,-0.2091 0.09011,-0.0901 0.04308,0.10767 0.03779,0.23631 -0.01178,0.28587 -0.04956,0.0496 -0.08481,-0.0385 -0.07834,-0.19575 z m 167.792293,0 c 0.007,-0.17375 0.0425,-0.2091 0.0901,-0.0901 0.0431,0.10767 0.0378,0.23631 -0.0118,0.28587 -0.0496,0.0496 -0.0848,-0.0385 -0.0784,-0.19575 z M 20.408698,154.83186 c 0.0072,-0.17375 0.0425,-0.20909 0.09011,-0.0901 0.04308,0.10767 0.03779,0.23631 -0.01178,0.28587 -0.04956,0.0496 -0.08481,-0.0385 -0.07834,-0.19576 z m 168.090582,0 c 0.007,-0.17375 0.0425,-0.20909 0.0901,-0.0901 0.0431,0.10767 0.0378,0.23631 -0.0118,0.28587 -0.0496,0.0496 -0.0848,-0.0385 -0.0784,-0.19576 z M 20.288405,151.78674 c 0,-0.36914 0.02909,-0.52015 0.06464,-0.33558 0.03555,0.18457 0.03555,0.4866 0,0.67117 -0.03555,0.18457 -0.06464,0.0336 -0.06464,-0.33559 z m 168.388895,0 c 0,-0.36914 0.0291,-0.52015 0.0646,-0.33558 0.0356,0.18457 0.0356,0.4866 0,0.67117 -0.0355,0.18457 -0.0646,0.0336 -0.0646,-0.33559 z M 20.285395,146.34281 c 0.0017,-0.32812 0.0322,-0.44479 0.06787,-0.25927 0.03567,0.18553 0.03432,0.454 -0.003,0.5966 -0.03733,0.1426 -0.06652,-0.009 -0.06486,-0.33733 z m 168.388895,0 c 0.002,-0.32812 0.0322,-0.44479 0.0679,-0.25927 0.0357,0.18553 0.0343,0.454 -0.003,0.5966 -0.0373,0.1426 -0.0665,-0.009 -0.0649,-0.33733 z M 20.42048,143.28527 c 0,-0.20508 0.03385,-0.28898 0.07523,-0.18644 0.04138,0.10254 0.04138,0.27033 0,0.37287 -0.04138,0.10254 -0.07523,0.0187 -0.07523,-0.18643 z m 168.0906,0 c 0,-0.20508 0.0339,-0.28898 0.0752,-0.18644 0.0414,0.10254 0.0414,0.27033 0,0.37287 -0.0414,0.10254 -0.0752,0.0187 -0.0752,-0.18643 z M 20.557854,141.40848 c 0.0072,-0.17375 0.0425,-0.20909 0.09011,-0.0901 0.04309,0.10766 0.03779,0.23631 -0.01178,0.28587 -0.04956,0.0496 -0.08481,-0.0385 -0.07834,-0.19576 z m 167.792286,0 c 0.007,-0.17375 0.0425,-0.20909 0.0901,-0.0901 0.0431,0.10766 0.0378,0.23631 -0.0118,0.28587 -0.0496,0.0496 -0.0848,-0.0385 -0.0784,-0.19576 z m -80.25126,-14.26473 c 0.001,-0.10465 0.46889,-2.97553 1.03892,-6.37973 0.8064,-4.8158 0.99618,-6.2255 0.8551,-6.35183 -0.77387,-0.693 -9.05613,-8.76049 -9.02324,-8.78926 0.0232,-0.0203 2.88828,-0.46214 6.36688,-0.98191 l 6.32473,-0.94504 1.7099,-3.50984 c 0.94045,-1.930417 2.21185,-4.550157 2.82535,-5.82165 l 1.11544,-2.311805 2.88745,5.766294 c 2.62989,5.251951 2.92459,5.773911 3.30384,5.851661 0.48025,0.0985 12.1138,1.73085 12.33529,1.73085 0.0809,0 -1.94408,2.06385 -4.50003,4.58633 l -4.64719,4.58632 1.11903,6.24519 c 0.61546,3.43486 1.08927,6.27495 1.0529,6.31131 -0.0364,0.0364 -2.60004,-1.2546 -5.69706,-2.86881 l -5.63095,-2.93494 -0.53652,0.25534 c -0.29508,0.14044 -2.6507,1.38069 -5.2347,2.75611 -6.10024,3.24708 -5.66814,3.0331 -5.66514,2.80541 z m 14.72629,-9.25162 2.12574,-0.6036 0.2852,-0.98433 c 0.91608,-3.16163 0.94653,-5.70713 0.0907,-7.57938 -0.6863,-1.50135 -2.23776,-2.79909 -4.04649,-3.38472 -0.67713,-0.21924 -3.05321,-0.57353 -3.15614,-0.47061 -0.022,0.022 0.16393,0.47583 0.4132,1.0085 0.24926,0.53266 0.55448,1.45418 0.67825,2.04781 0.33615,1.61218 0.0939,2.54668 -0.88215,3.40371 -0.80242,0.70454 -1.4365,0.85721 -3.56232,0.85776 l -1.90127,4.5e-4 -4.5e-4,0.45339 c -1.5e-4,0.24937 0.10251,0.8484 0.22826,1.33118 0.80376,3.08587 3.47332,4.89567 6.78136,4.59737 0.45117,-0.0407 1.77689,-0.3456 2.94605,-0.67758 z m 10.98997,7.7563 -0.43806,-0.48473 0.48473,0.43806 c 0.2666,0.24094 0.48473,0.45907 0.48473,0.48473 0,0.11523 -0.12306,0.0138 -0.5314,-0.43806 z M 76.924291,105.34518 c 0,-0.031 0.117455,-0.14842 0.26101,-0.26101 0.236559,-0.18552 0.241834,-0.18024 0.05631,0.0563 -0.194844,0.24845 -0.317323,0.32746 -0.317323,0.2047 z m 4.176164,-4.17616 c 0,-0.031 0.117454,-0.14843 0.26101,-0.26101 0.236559,-0.18552 0.241834,-0.18025 0.05631,0.0563 -0.194844,0.24844 -0.317323,0.32745 -0.317323,0.2047 z m 61.360525,-1.770761 -0.28413,-0.335585 0.33559,0.284127 c 0.18457,0.156269 0.33558,0.307282 0.33558,0.335585 0,0.119356 -0.12003,0.03124 -0.38704,-0.284127 z m -1.34234,-1.342338 -0.28413,-0.335585 0.33559,0.284127 c 0.18457,0.156269 0.33558,0.307282 0.33558,0.335584 0,0.119357 -0.12003,0.03124 -0.38704,-0.284126 z M 43.813278,90.594752 c 0,-0.02256 0.520156,-0.542716 1.155902,-1.155902 l 1.155903,-1.114882 -1.114882,1.155902 c -1.035479,1.073577 -1.196923,1.223955 -1.196923,1.114882 z M 164.02714,89.517157 c -0.61114,-0.615238 -1.07759,-1.118615 -1.03658,-1.118615 0.041,0 0.57459,0.503377 1.18573,1.118615 0.61113,0.615239 1.07759,1.118615 1.03657,1.118615 -0.041,0 -0.57459,-0.503376 -1.18572,-1.118615 z m -47.30811,-1.071351 c 0.10767,-0.04309 0.23631,-0.03779 0.28587,0.01177 0.0496,0.04956 -0.0385,0.08481 -0.19576,0.07834 -0.17375,-0.0072 -0.20909,-0.0425 -0.0901,-0.09011 z m -4.47878,-0.157396 c 0.43341,-0.03023 1.10458,-0.02991 1.49148,7.46e-4 0.3869,0.03061 0.0323,0.05534 -0.78803,0.05495 -0.82031,-4.48e-4 -1.13687,-0.02544 -0.70345,-0.05566 z M 96.434806,65.178607 c 0.107666,-0.04309 0.236309,-0.03779 0.285869,0.01177 0.04956,0.04956 -0.03853,0.08481 -0.195757,0.07834 -0.173751,-0.0072 -0.209092,-0.0425 -0.09011,-0.09011 z m 15.958914,0 c 0.10766,-0.04309 0.23631,-0.03779 0.28587,0.01177 0.0496,0.04956 -0.0385,0.08481 -0.19576,0.07834 -0.17375,-0.0072 -0.20909,-0.0425 -0.0901,-0.09011 z M 98.224591,65.029458 c 0.107666,-0.04309 0.236308,-0.03779 0.285869,0.01178 0.04956,0.04956 -0.03853,0.08481 -0.195758,0.07833 -0.173751,-0.0072 -0.209092,-0.0425 -0.09011,-0.09011 z m 12.379339,0 c 0.10767,-0.04309 0.23631,-0.03779 0.28587,0.01178 0.0496,0.04956 -0.0385,0.08481 -0.19576,0.07833 -0.17375,-0.0072 -0.20909,-0.0425 -0.0901,-0.09011 z m -9.77856,-0.150075 c 0.14356,-0.03751 0.37847,-0.03751 0.52202,0 0.14356,0.03751 0.0261,0.06821 -0.26101,0.06821 -0.28711,0 -0.40456,-0.03069 -0.26101,-0.06821 z m 6.86084,0 c 0.14356,-0.03751 0.37847,-0.03751 0.52202,0 0.14356,0.03751 0.0261,0.06821 -0.26101,0.06821 -0.28711,0 -0.40456,-0.03069 -0.26101,-0.06821 z"
         id="path205" />
      <path
         style="fill:#f1e59b;stroke-width:0.149149"
         d="m 104.56457,226.19087 c -0.45933,-0.45932 -0.48229,-0.46504 -1.17118,-0.29157 -0.38646,0.0973 -0.72408,0.1555 -0.75027,0.12931 -0.0262,-0.0262 0.0811,-0.33504 0.23838,-0.68636 l 0.28598,-0.63878 -0.36938,-0.58514 c -0.20316,-0.32182 -0.36938,-0.62857 -0.36938,-0.68165 0,-0.0531 0.33251,-0.0645 0.7389,-0.0255 0.71638,0.0688 0.75366,0.0526 1.22301,-0.5314 l 0.48411,-0.60241 0.17377,0.68121 c 0.23083,0.90482 0.25316,0.93209 0.9523,1.16284 0.33224,0.10963 0.60407,0.24047 0.60407,0.29072 0,0.0502 -0.24205,0.22171 -0.53789,0.38103 -0.57277,0.30845 -0.80444,0.71985 -0.80444,1.4285 0,0.55513 -0.11723,0.54997 -0.69798,-0.0308 z m 39.43627,-14.52658 c -0.0443,-0.16095 -0.19488,-0.90821 -0.33462,-1.66057 l -0.25407,-1.36793 -1.47525,-0.64181 c -0.81139,-0.35299 -1.47526,-0.68804 -1.47526,-0.74456 0,-0.0565 0.62979,-0.44227 1.39954,-0.85723 1.56855,-0.84558 1.47577,-0.68487 1.6672,-2.88813 0.0552,-0.63575 0.1465,-1.15591 0.2028,-1.15591 0.0563,0 0.33366,0.24087 0.61636,0.53527 0.28269,0.29439 0.82016,0.79344 1.19437,1.10899 l 0.68037,0.57374 1.59414,-0.34421 c 0.87678,-0.18932 1.59414,-0.31169 1.59414,-0.27193 0,0.0398 -0.3095,0.73028 -0.68777,1.53448 l -0.68777,1.46219 0.83032,1.46092 c 0.45668,0.8035 0.81651,1.47114 0.79963,1.48365 -0.0169,0.0125 -0.76653,-0.0772 -1.66589,-0.19942 l -1.63521,-0.22215 -1.14124,1.24363 c -0.95374,1.0393 -1.15447,1.19554 -1.22179,0.95098 z m 17.15232,-37.12256 0.0827,-1.97336 -1.51278,-1.15957 c -0.83203,-0.63777 -1.51278,-1.18407 -1.51278,-1.214 0,-0.0299 0.38592,-0.16289 0.8576,-0.29544 0.47168,-0.13256 1.30264,-0.3698 1.84657,-0.52721 l 0.98896,-0.28619 0.64239,-1.85772 0.6424,-1.85772 1.09255,1.63501 1.09255,1.63502 1.67598,0.0105 c 0.92179,0.006 1.79216,0.0565 1.93416,0.11282 0.21634,0.0858 0.0656,0.34387 -0.93028,1.59287 -0.9014,1.13051 -1.16517,1.56258 -1.09201,1.78882 0.0531,0.16407 0.31064,1.00808 0.57242,1.8756 l 0.47598,1.5773 -1.73023,-0.64476 c -0.95162,-0.35462 -1.80367,-0.64492 -1.89344,-0.64512 -0.0898,-1.5e-4 -0.87248,0.49619 -1.73937,1.10309 l -1.57615,1.10345 0.0827,-1.97337 z M 37.562294,162.71189 c -0.08106,-0.30762 -0.29396,-1.16336 -0.473108,-1.90165 -0.179149,-0.73829 -0.400658,-1.41672 -0.492246,-1.50763 -0.09159,-0.0909 -0.957093,-0.45422 -1.923347,-0.80734 -0.966253,-0.35313 -1.738097,-0.69562 -1.71521,-0.7611 0.02289,-0.0655 0.7799,-0.57598 1.682249,-1.13445 l 1.640636,-1.01539 0.149149,-2.10603 0.149149,-2.10604 0.969466,0.8167 c 0.533207,0.44919 1.251189,1.05102 1.595518,1.33741 l 0.626051,0.5207 1.967671,-0.53752 c 1.082218,-0.29564 1.984765,-0.51896 2.005658,-0.49628 0.02089,0.0227 -0.290541,0.83878 -0.692076,1.81355 -0.401535,0.97478 -0.730063,1.85768 -0.730063,1.96199 0,0.10432 0.456539,0.88403 1.014532,1.73268 0.557993,0.84865 1.054966,1.61012 1.104385,1.69215 0.05893,0.0978 -0.354393,0.11513 -1.20097,0.0503 -0.70995,-0.0544 -1.666199,-0.10472 -2.124997,-0.11186 l -0.834179,-0.013 -1.240043,1.56606 c -0.682024,0.86134 -1.260473,1.56606 -1.285442,1.56606 -0.02497,0 -0.111722,-0.25169 -0.192783,-0.5593 z m 131.977756,-32.88375 -0.006,-1.38317 -1.12487,-0.76666 -1.12486,-0.76665 1.31688,-0.43878 1.31689,-0.43878 0.36055,-1.21823 c 0.19831,-0.67003 0.40613,-1.21823 0.46183,-1.21823 0.0557,0 0.43036,0.47492 0.83262,1.05538 l 0.73138,1.05538 1.37528,-0.0649 c 1.02284,-0.0483 1.34773,-0.0203 1.26777,0.10899 -0.0591,0.0956 -0.42522,0.61332 -0.81352,1.15038 l -0.70599,0.97648 0.44498,1.21929 c 0.24474,0.6706 0.44499,1.24665 0.44499,1.2801 0,0.0335 -0.58186,-0.13586 -1.293,-0.37624 l -1.293,-0.43706 -1.09338,0.82294 -1.09338,0.82294 -0.006,-1.38318 z M 42.620216,121.60256 c -0.633914,-1.3721 -0.504814,-1.28759 -2.311933,-1.51352 -1.255554,-0.15698 -1.254707,-0.15007 -0.154364,-1.25891 l 1.019194,-1.02706 -0.180989,-1.16702 c -0.09954,-0.64186 -0.217408,-1.29283 -0.261921,-1.44659 -0.06521,-0.22526 0.178284,-0.1429 1.253317,0.42392 l 1.334252,0.70349 1.308614,-0.70756 1.308614,-0.70755 -0.08773,0.43278 c -0.04825,0.23804 -0.164596,0.89276 -0.258539,1.45495 l -0.170805,1.02217 1.014933,1.02277 c 0.691239,0.69657 0.946711,1.04468 0.801026,1.09146 -0.11765,0.0378 -0.746725,0.14257 -1.397947,0.23286 -0.651222,0.0903 -1.197135,0.17948 -1.21314,0.19818 -0.016,0.0187 -0.306119,0.58772 -0.644697,1.26449 -0.338578,0.67676 -0.652742,1.23047 -0.698143,1.23047 -0.0454,0 -0.342282,-0.5622 -0.65974,-1.24933 z M 155.60716,98.529708 c -1.08542,-1.276204 -1.18435,-1.353966 -1.62539,-1.277541 -0.84447,0.146336 -2.93057,0.28507 -2.93057,0.194893 0,-0.04844 0.39737,-0.73322 0.88305,-1.521735 l 0.88304,-1.433665 -0.72039,-1.629646 c -0.39622,-0.896306 -0.67613,-1.628301 -0.62204,-1.626658 0.0541,0.0016 0.73597,0.168092 1.51527,0.369883 0.7793,0.201791 1.54288,0.368238 1.69684,0.369883 0.15396,0.0016 0.85869,-0.513973 1.56606,-1.145813 1.19427,-1.066744 1.28913,-1.122675 1.32807,-0.78303 0.0231,0.201173 0.0902,1.003381 0.14915,1.782683 l 0.10722,1.416913 1.55805,0.92474 c 1.53626,0.911808 1.55218,0.926971 1.13859,1.084217 -1.10906,0.421664 -2.70957,1.102674 -2.81858,1.199291 -0.0671,0.05944 -0.28591,0.833604 -0.48633,1.720362 -0.20043,0.886756 -0.38733,1.635204 -0.41534,1.663214 -0.028,0.02801 -0.57103,-0.560586 -1.2067,-1.307991 z m -77.244752,-14.500489 0.09303,-1.100488 -0.845119,-0.688427 -0.845116,-0.688428 0.638854,-0.158751 c 1.610427,-0.400177 1.482121,-0.305149 1.880516,-1.392777 l 0.370296,-1.010915 0.55532,0.878273 c 0.305425,0.483049 0.669731,0.922176 0.809567,0.975836 0.139837,0.05366 0.656069,0.09756 1.147185,0.09756 h 0.892937 l -0.746208,0.857932 -0.746206,0.857933 0.279074,1.006426 c 0.15349,0.553536 0.224558,1.006427 0.157928,1.006427 -0.06663,0 -0.501923,-0.168398 -0.967316,-0.374215 -0.933252,-0.412729 -0.943284,-0.410838 -2.135258,0.402507 l -0.632505,0.43159 z m 35.791372,-8.681189 -0.56712,-0.969467 h -1.10451 c -0.60748,0 -1.10451,-0.03963 -1.10451,-0.08807 0,-0.04844 0.31588,-0.457807 0.70194,-0.909702 l 0.70194,-0.821629 -0.2564,-0.977603 c -0.14103,-0.537681 -0.22213,-1.011883 -0.18023,-1.053782 0.0419,-0.0419 0.49085,0.10274 0.99767,0.321421 l 0.92148,0.397601 0.96535,-0.605273 0.96535,-0.605272 -0.0852,1.126303 -0.0852,1.126304 0.89817,0.705642 0.89817,0.705643 -0.7233,0.173887 c -0.39781,0.09564 -0.90192,0.21451 -1.12023,0.264159 -0.32795,0.07458 -0.46631,0.271811 -0.79607,1.13479 -0.21953,0.574484 -0.41288,1.044518 -0.42968,1.044518 -0.0168,0 -0.28575,-0.43626 -0.59766,-0.969467 z"
         id="path203" />
      <path
         style="fill:#c8aed1;stroke-width:0.149149"
         d="m 97.774905,217.00279 c 0.680658,-0.0277 1.754528,-0.0275 2.386375,0 0.63186,0.0279 0.075,0.0506 -1.237555,0.0504 -1.312508,0 -1.829477,-0.023 -1.14882,-0.0507 z m -4.630692,-0.13684 c 0.10254,-0.0414 0.270332,-0.0414 0.372872,0 0.10254,0.0414 0.01864,0.0752 -0.186436,0.0752 -0.20508,0 -0.288976,-0.0339 -0.186436,-0.0752 z m 11.335297,0 c 0.10254,-0.0414 0.27034,-0.0414 0.37288,0 0.10254,0.0414 0.0186,0.0752 -0.18644,0.0752 -0.20508,0 -0.28897,-0.0339 -0.18644,-0.0752 z M 91.065453,216.7137 c 0.107666,-0.0431 0.236308,-0.0378 0.285869,0.0118 0.04956,0.0496 -0.03853,0.0848 -0.195758,0.0784 -0.173751,-0.007 -0.209091,-0.0425 -0.09011,-0.0901 z m 15.809767,0 c 0.10766,-0.0431 0.2363,-0.0378 0.28586,0.0118 0.0496,0.0496 -0.0385,0.0848 -0.19575,0.0784 -0.17375,-0.007 -0.20909,-0.0425 -0.0901,-0.0901 z m 3.43042,-0.2983 c 0.10766,-0.0431 0.2363,-0.0378 0.28587,0.0118 0.0496,0.0496 -0.0385,0.0848 -0.19576,0.0784 -0.17375,-0.007 -0.20909,-0.0425 -0.0901,-0.0901 z m -63.448984,-5.90135 -0.284127,-0.33559 0.335585,0.28413 c 0.315366,0.26701 0.403483,0.38704 0.284126,0.38704 -0.0283,0 -0.179315,-0.15101 -0.335584,-0.33558 z m 115.156974,0.0373 c 0.14847,-0.16406 0.30351,-0.29829 0.34453,-0.29829 0.041,0 -0.0469,0.13423 -0.19538,0.29829 -0.14848,0.16407 -0.30352,0.2983 -0.34453,0.2983 -0.041,0 0.0469,-0.13423 0.19538,-0.2983 z m -119.034841,-3.91515 -0.284126,-0.33558 0.335584,0.28412 c 0.315366,0.26701 0.403483,0.38704 0.284127,0.38704 -0.0283,0 -0.179316,-0.15101 -0.335585,-0.33558 z m 122.912711,0.0373 c 0.14847,-0.16407 0.30351,-0.2983 0.34453,-0.2983 0.041,0 -0.0469,0.13423 -0.19539,0.2983 -0.14847,0.16406 -0.30351,0.29829 -0.34453,0.29829 -0.041,0 0.0469,-0.13423 0.19539,-0.29829 z m -38.09572,-0.6836 c 0.007,-0.17375 0.0425,-0.20909 0.0901,-0.0901 0.0431,0.10766 0.0378,0.23631 -0.0118,0.28587 -0.0496,0.0496 -0.0848,-0.0385 -0.0783,-0.19576 z m -0.14915,-1.34234 c 0.007,-0.17375 0.0425,-0.20909 0.0901,-0.0901 0.0431,0.10767 0.0378,0.23631 -0.0118,0.28587 -0.0496,0.0496 -0.0848,-0.0385 -0.0783,-0.19576 z m 17.49902,-0.99432 -0.28412,-0.33559 0.33558,0.28413 c 0.31537,0.26701 0.40349,0.38704 0.28413,0.38704 -0.0283,0 -0.17932,-0.15101 -0.33559,-0.33558 z m -17.79732,-1.8395 c 0.007,-0.17376 0.0425,-0.2091 0.0901,-0.0901 0.0431,0.10767 0.0378,0.23631 -0.0118,0.28587 -0.0496,0.0496 -0.0848,-0.0385 -0.0783,-0.19575 z m -74.44827,-0.91976 -0.361583,-0.41015 0.410159,0.36158 c 0.383356,0.33795 0.478557,0.45873 0.361583,0.45873 -0.02672,0 -0.211287,-0.18457 -0.410159,-0.41016 z m 74.14997,-2.36152 c 0.007,-0.17375 0.0425,-0.20909 0.0901,-0.0901 0.0431,0.10767 0.0378,0.23631 -0.0118,0.28587 -0.0496,0.0496 -0.0848,-0.0385 -0.0783,-0.19576 z m -0.13737,-1.85193 c 0,-0.20508 0.0339,-0.28897 0.0752,-0.18643 0.0414,0.10254 0.0414,0.27033 0,0.37287 -0.0414,0.10254 -0.0752,0.0186 -0.0752,-0.18644 z m -0.14915,-2.08808 c 0,-0.20508 0.0339,-0.28897 0.0752,-0.18643 0.0414,0.10254 0.0414,0.27033 0,0.37287 -0.0414,0.10254 -0.0752,0.0186 -0.0752,-0.18644 z m -0.14362,-2.46095 c 0.003,-0.2461 0.0365,-0.32872 0.0743,-0.1836 0.0378,0.14512 0.0353,0.34647 -0.006,0.44745 -0.0409,0.10097 -0.0718,-0.0178 -0.0688,-0.26385 z m -0.13761,-3.505 c 0,-0.36914 0.0291,-0.52015 0.0646,-0.33558 0.0356,0.18457 0.0356,0.4866 0,0.67117 -0.0356,0.18457 -0.0646,0.0336 -0.0646,-0.33559 z m -0.003,-10.36583 c 0.002,-0.32813 0.0322,-0.4448 0.0679,-0.25927 0.0357,0.18552 0.0343,0.45399 -0.003,0.59659 -0.0373,0.1426 -0.0665,-0.009 -0.0649,-0.33732 z m 0.13509,-2.9084 c 0,-0.20508 0.0339,-0.28898 0.0752,-0.18644 0.0414,0.10254 0.0414,0.27033 0,0.37287 -0.0414,0.10254 -0.0752,0.0187 -0.0752,-0.18643 z m 0.13737,-2.02594 c 0.007,-0.17375 0.0425,-0.20909 0.0901,-0.0901 0.0431,0.10767 0.0378,0.23631 -0.0118,0.28587 -0.0496,0.0496 -0.0848,-0.0385 -0.0783,-0.19576 z m 10.12411,-28.13939 c 0.36571,-0.38965 0.68452,-0.70845 0.70846,-0.70845 0.11199,0 -0.006,0.13391 -0.66494,0.75197 l -0.70846,0.66494 z m 15.61605,-4.66241 c -3.2682,-0.84802 -5.96223,-1.56374 -5.98675,-1.59049 -0.13028,-0.14215 -5.73482,-11.45851 -5.67494,-11.45851 0.0594,0 17.16932,14.08326 17.5964,14.48372 0.0779,0.0731 0.11149,0.12707 0.0746,0.11999 -0.0369,-0.007 -2.7411,-0.7067 -6.00929,-1.55471 z m -8.87458,-1.4154 c 0,-0.20508 0.0339,-0.28897 0.0752,-0.18643 0.0414,0.10254 0.0414,0.27033 0,0.37287 -0.0414,0.10254 -0.0752,0.0186 -0.0752,-0.18644 z m -7.20171,-10.70142 c -0.18552,-0.23656 -0.18025,-0.24183 0.0563,-0.0563 0.24845,0.19484 0.32746,0.31732 0.2047,0.31732 -0.031,0 -0.14843,-0.11745 -0.26101,-0.26101 z m -1.78205,-1.93893 -0.36158,-0.41016 0.41016,0.36158 c 0.22559,0.19888 0.41016,0.38345 0.41016,0.41016 0,0.11698 -0.12078,0.0218 -0.45874,-0.36158 z m 20.56585,-0.43747 c 0.10766,-0.0431 0.23631,-0.0378 0.28587,0.0118 0.0496,0.0496 -0.0385,0.0848 -0.19576,0.0783 -0.17375,-0.007 -0.20909,-0.0425 -0.0901,-0.0901 z m 0.18889,-2.96809 c 0.007,-0.17375 0.0425,-0.20909 0.0901,-0.0901 0.0431,0.10766 0.0378,0.2363 -0.0118,0.28587 -0.0496,0.0496 -0.0848,-0.0385 -0.0783,-0.19576 z m -36.21479,-4.49082 c 0.14512,-0.0378 0.34647,-0.0353 0.44745,0.006 0.10098,0.0409 -0.0178,0.0718 -0.26385,0.0688 -0.2461,-0.003 -0.32872,-0.0365 -0.1836,-0.0743 z m 6.69512,-6.01174 c 0,-0.20508 0.0338,-0.28897 0.0752,-0.18643 0.0414,0.10254 0.0414,0.27033 0,0.37287 -0.0414,0.10254 -0.0752,0.0186 -0.0752,-0.18644 z m -11.24699,-0.24792 c 0.10254,-0.0414 0.27033,-0.0414 0.37287,0 0.10254,0.0414 0.0186,0.0752 -0.18644,0.0752 -0.20508,0 -0.28897,-0.0339 -0.18643,-0.0752 z m 11.24699,-0.94527 c 0,-0.20508 0.0338,-0.28897 0.0752,-0.18643 0.0414,0.10254 0.0414,0.27033 0,0.37287 -0.0414,0.10254 -0.0752,0.0186 -0.0752,-0.18644 z m -7.40641,-0.14915 c 0.14847,-0.16406 0.30351,-0.29829 0.34453,-0.29829 0.041,0 -0.0469,0.13423 -0.19539,0.29829 -0.14847,0.16407 -0.30351,0.2983 -0.34453,0.2983 -0.041,0 0.0469,-0.13423 0.19539,-0.2983 z m 29.41678,-0.7577 c 0.0527,-0.20167 0.12034,-0.26928 0.15758,-0.15758 0.0359,0.1076 -0.006,0.26655 -0.0924,0.35322 -0.11068,0.11068 -0.13009,0.0525 -0.0652,-0.19564 z m -71.402145,-4.66796 c 0,-0.031 0.117455,-0.14843 0.26101,-0.26101 0.236559,-0.18552 0.241834,-0.18025 0.05631,0.0563 -0.194844,0.24844 -0.317323,0.32745 -0.317323,0.2047 z m 41.612485,-0.84326 c 0,-0.0795 0.10068,-0.14447 0.22373,-0.14447 0.12305,0 0.22372,0.0264 0.22372,0.0586 0,0.0322 -0.10067,0.0973 -0.22372,0.14447 -0.12305,0.0472 -0.22373,0.0208 -0.22373,-0.0586 z m -39.375254,-1.53348 c 0,-0.0257 0.21813,-0.2438 0.484733,-0.48473 l 0.484733,-0.43807 -0.438063,0.48474 c -0.408336,0.45184 -0.531403,0.55329 -0.531403,0.43806 z M 42.172642,92.369244 c 0,-0.03097 0.117455,-0.148425 0.26101,-0.26101 0.236559,-0.185521 0.241834,-0.180246 0.05631,0.05631 -0.194844,0.248444 -0.317323,0.327453 -0.317323,0.204697 z M 166.54364,92.164547 c -0.18552,-0.236559 -0.18025,-0.241834 0.0563,-0.05631 0.24845,0.194844 0.32745,0.317323 0.2047,0.317323 -0.031,0 -0.14843,-0.117455 -0.26101,-0.26101 z m -47.88568,-3.569593 c 0.10767,-0.04308 0.23631,-0.03779 0.28587,0.01177 0.0496,0.04956 -0.0385,0.08481 -0.19575,0.07834 -0.17376,-0.0072 -0.2091,-0.0425 -0.0901,-0.09011 z M 108.665,88.445806 c 0.10767,-0.04309 0.23631,-0.03779 0.28587,0.01177 0.0496,0.04956 -0.0385,0.08481 -0.19576,0.07834 -0.17375,-0.0072 -0.20909,-0.0425 -0.0901,-0.09011 z m 8.50148,0 c 0.10766,-0.04309 0.23631,-0.03779 0.28587,0.01177 0.0496,0.04956 -0.0385,0.08481 -0.19576,0.07834 -0.17375,-0.0072 -0.20909,-0.0425 -0.0901,-0.09011 z m -6.34815,-0.150077 c 0.14356,-0.03751 0.37847,-0.03751 0.52203,0 0.14355,0.03752 0.0261,0.06821 -0.26101,0.06821 -0.28712,0 -0.40457,-0.03069 -0.26102,-0.06821 z m 3.80504,-0.0027 c 0.18552,-0.03567 0.45399,-0.03432 0.59659,0.003 0.1426,0.03733 -0.009,0.06652 -0.33732,0.06487 -0.32813,-0.0017 -0.4448,-0.0322 -0.25927,-0.06788 z M 47.392847,87.14904 c 0,-0.03097 0.117454,-0.148426 0.26101,-0.261011 0.236559,-0.185521 0.241834,-0.180246 0.05631,0.05631 -0.194844,0.248444 -0.317323,0.327453 -0.317323,0.204698 z M 161.32343,86.944342 c -0.18552,-0.236559 -0.18024,-0.241834 0.0563,-0.05631 0.24844,0.194844 0.32745,0.317323 0.20469,0.317323 -0.031,0 -0.14842,-0.117454 -0.26101,-0.26101 z"
         id="path201" />
      <path
         style="fill:#b49cc8;stroke-width:0.149149"
         d="m 99.63502,233.11858 c 0.145117,-0.0378 0.346468,-0.0353 0.44745,0.006 0.10097,0.0409 -0.0178,0.0718 -0.263852,0.0687 -0.246096,-0.003 -0.328715,-0.0365 -0.183598,-0.0743 z m 9.39637,0 c 0.14512,-0.0378 0.34647,-0.0353 0.44744,0.006 0.10098,0.0409 -0.0178,0.0718 -0.26384,0.0687 -0.2461,-0.003 -0.32872,-0.0365 -0.1836,-0.0743 z m -11.552543,-0.14767 c 0.107666,-0.0431 0.236309,-0.0378 0.285869,0.0118 0.04956,0.0496 -0.03853,0.0848 -0.195757,0.0784 -0.173751,-0.007 -0.209092,-0.0425 -0.09011,-0.0901 z m 13.870833,0 c 0.10766,-0.0431 0.23631,-0.0378 0.28587,0.0118 0.0496,0.0496 -0.0385,0.0848 -0.19576,0.0784 -0.17375,-0.007 -0.20909,-0.0425 -0.0901,-0.0901 z m -65.3072,-23.27718 -0.513992,-0.55931 0.559308,0.51399 c 0.307619,0.2827 0.559307,0.53439 0.559307,0.55931 0,0.11389 -0.126212,0.007 -0.604623,-0.51399 z m 116.79147,0.0373 c 0.27828,-0.28712 0.53952,-0.52202 0.58053,-0.52202 0.041,0 -0.15311,0.2349 -0.43138,0.52202 -0.27828,0.28711 -0.53952,0.52202 -0.58054,0.52202 -0.041,0 0.15311,-0.23491 0.43139,-0.52202 z m -119.028701,-2.27452 -0.513992,-0.55931 0.559308,0.51399 c 0.307619,0.2827 0.559308,0.53439 0.559308,0.55931 0,0.11389 -0.126213,0.007 -0.604624,-0.51399 z m 121.265931,0.0373 c 0.27828,-0.28712 0.53952,-0.52203 0.58053,-0.52203 0.041,0 -0.15311,0.23491 -0.43138,0.52203 -0.27828,0.28711 -0.53952,0.52202 -0.58054,0.52202 -0.041,0 0.15311,-0.23491 0.43139,-0.52202 z m -111.425376,-5.85409 -0.361583,-0.41016 0.410159,0.36158 c 0.383355,0.33796 0.478557,0.45874 0.361582,0.45874 -0.02672,0 -0.211287,-0.18457 -0.410158,-0.41016 z m -1.491488,-1.49149 -0.361582,-0.41016 0.410159,0.36159 c 0.383355,0.33795 0.478557,0.45873 0.361582,0.45873 -0.02672,0 -0.211287,-0.18457 -0.410159,-0.41016 z M 20.42048,154.17312 c 0,-0.20508 0.03385,-0.28897 0.07523,-0.18643 0.04138,0.10254 0.04138,0.27033 0,0.37287 -0.04138,0.10254 -0.07523,0.0186 -0.07523,-0.18644 z m 168.0906,0 c 0,-0.20508 0.0339,-0.28897 0.0752,-0.18643 0.0414,0.10254 0.0414,0.27033 0,0.37287 -0.0414,0.10254 -0.0752,0.0186 -0.0752,-0.18644 z M 20.30663,149.02749 c 2.32e-4,-1.14844 0.02365,-1.59855 0.05203,-1.00023 0.02838,0.59832 0.02819,1.53796 -4.24e-4,2.08809 -0.02861,0.55012 -0.05184,0.0606 -0.0516,-1.08786 z m 168.3889,0 c 0,-1.14844 0.0236,-1.59855 0.052,-1.00023 0.0284,0.59832 0.0282,1.53796 0,2.08809 -0.0286,0.55012 -0.0518,0.0606 -0.0516,-1.08786 z M 20.408706,143.94401 c 0.0072,-0.17375 0.0425,-0.20909 0.09011,-0.0901 0.04308,0.10766 0.03779,0.2363 -0.01178,0.28586 -0.04956,0.0496 -0.08481,-0.0385 -0.07834,-0.19575 z m 168.090584,0 c 0.007,-0.17375 0.0425,-0.20909 0.0901,-0.0901 0.0431,0.10766 0.0378,0.2363 -0.0118,0.28586 -0.0496,0.0496 -0.0848,-0.0385 -0.0784,-0.19575 z M 20.557854,141.85593 c 0.0072,-0.17376 0.0425,-0.2091 0.09011,-0.0901 0.04309,0.10767 0.03779,0.23631 -0.01178,0.28587 -0.04956,0.0496 -0.08481,-0.0385 -0.07834,-0.19575 z m 167.792286,0 c 0.007,-0.17376 0.0425,-0.2091 0.0901,-0.0901 0.0431,0.10767 0.0378,0.23631 -0.0118,0.28587 -0.0496,0.0496 -0.0848,-0.0385 -0.0784,-0.19575 z m -53.12773,-14.79059 c -0.18552,-0.23655 -0.18025,-0.24183 0.0563,-0.0563 0.14356,0.11259 0.26101,0.23004 0.26101,0.26101 0,0.12276 -0.12248,0.0438 -0.31732,-0.2047 z M 77.819183,104.31078 c 0,-0.0257 0.21813,-0.24379 0.484734,-0.48473 l 0.484733,-0.43806 -0.438063,0.48473 c -0.408337,0.45184 -0.531404,0.55329 -0.531404,0.43806 z m 1.789785,-1.78978 c 0,-0.0257 0.21813,-0.2438 0.484733,-0.48473 l 0.484733,-0.43807 -0.438063,0.48474 c -0.408336,0.45184 -0.531403,0.55329 -0.531403,0.43806 z M 42.843811,91.679813 c 0.148476,-0.164063 0.303515,-0.298297 0.344531,-0.298297 0.04102,0 -0.04691,0.134234 -0.195382,0.298297 -0.148476,0.164064 -0.303515,0.298298 -0.344531,0.298298 -0.04102,0 0.04691,-0.134234 0.195382,-0.298298 z m 123.182659,-0.03729 -0.28412,-0.335584 0.33558,0.284126 c 0.31537,0.267009 0.40348,0.387043 0.28413,0.387043 -0.0283,0 -0.17932,-0.151013 -0.33559,-0.335585 z M 46.945401,87.596486 c 0,-0.03097 0.117454,-0.148426 0.26101,-0.261011 0.236559,-0.185521 0.241834,-0.180246 0.05631,0.05631 -0.194844,0.248445 -0.317323,0.327453 -0.317323,0.204698 z M 161.77088,87.391788 c -0.18552,-0.236559 -0.18025,-0.241834 0.0563,-0.05631 0.14356,0.112585 0.26101,0.23004 0.26101,0.261011 0,0.122755 -0.12248,0.04375 -0.31732,-0.204698 z M 98.811864,65.032565 c 0.10254,-0.04138 0.270332,-0.04138 0.372872,0 0.102539,0.04138 0.01864,0.07523 -0.186436,0.07523 -0.20508,0 -0.288976,-0.03385 -0.186436,-0.07523 z m 11.037006,0 c 0.10254,-0.04138 0.27033,-0.04138 0.37287,0 0.10254,0.04138 0.0186,0.07523 -0.18644,0.07523 -0.20508,0 -0.28897,-0.03385 -0.18643,-0.07523 z m -7.82826,-0.157397 c 0.22672,-0.03428 0.5623,-0.03337 0.74575,0.002 0.18344,0.0354 -0.002,0.06345 -0.41221,0.06233 -0.41016,-0.0011 -0.56025,-0.03008 -0.33354,-0.06437 z m 4.32531,0 c 0.22672,-0.03428 0.5623,-0.03337 0.74575,0.002 0.18344,0.0354 -0.002,0.06345 -0.41221,0.06233 -0.41016,-0.0011 -0.56025,-0.03008 -0.33354,-0.06437 z"
         id="path199" />
      <path
         style="fill:#a68ba0;stroke-width:0.149149"
         d="m 100.38076,233.11858 c 0.14512,-0.0378 0.34647,-0.0353 0.44745,0.006 0.10098,0.0409 -0.0177,0.0718 -0.26385,0.0687 -0.24609,-0.003 -0.32871,-0.0365 -0.1836,-0.0743 z m 7.90489,0 c 0.14511,-0.0378 0.34646,-0.0353 0.44744,0.006 0.10098,0.0409 -0.0178,0.0718 -0.26385,0.0687 -0.24609,-0.003 -0.32871,-0.0365 -0.18359,-0.0743 z m -10.359357,-0.14767 c 0.107666,-0.0431 0.236309,-0.0378 0.285869,0.0118 0.04956,0.0496 -0.03853,0.0848 -0.195757,0.0784 -0.173751,-0.007 -0.209092,-0.0425 -0.09011,-0.0901 z m 12.975937,0 c 0.10767,-0.0431 0.23631,-0.0378 0.28587,0.0118 0.0496,0.0496 -0.0385,0.0848 -0.19576,0.0784 -0.17375,-0.007 -0.20909,-0.0425 -0.0901,-0.0901 z m -5.60207,-6.68439 c 0.002,-0.32812 0.0322,-0.4448 0.0679,-0.25926 0.0357,0.18552 0.0343,0.45399 -0.003,0.59659 -0.0373,0.14259 -0.0665,-0.009 -0.0649,-0.33733 z m -0.8721,-0.11186 -0.28413,-0.33558 0.33558,0.28412 c 0.31537,0.26701 0.40349,0.38705 0.28413,0.38705 -0.0283,0 -0.17931,-0.15102 -0.33558,-0.33559 z m -1.87816,-0.0646 c 0.10767,-0.0431 0.23631,-0.0378 0.28587,0.0118 0.0496,0.0496 -0.0385,0.0848 -0.19576,0.0784 -0.17375,-0.007 -0.20909,-0.0425 -0.0901,-0.0901 z m -0.27033,-2.73662 c 0,-0.0794 0.10068,-0.14447 0.22372,-0.14447 0.12305,0 0.22373,0.0264 0.22373,0.0586 0,0.0323 -0.10068,0.0972 -0.22373,0.14446 -0.12304,0.0472 -0.22372,0.0209 -0.22372,-0.0586 z m 2.31181,-0.89021 c 0.14847,-0.16406 0.30351,-0.2983 0.34453,-0.2983 0.041,0 -0.0469,0.13424 -0.19538,0.2983 -0.14848,0.16406 -0.30352,0.2983 -0.34454,0.2983 -0.041,0 0.0469,-0.13424 0.19539,-0.2983 z m -9.060788,-5.47461 c 0.184572,-0.0356 0.486598,-0.0356 0.67117,0 0.184571,0.0355 0.03356,0.0646 -0.335585,0.0646 -0.369143,0 -0.520156,-0.0291 -0.335585,-0.0646 z m 6.115098,0 c 0.18457,-0.0356 0.4866,-0.0356 0.67117,0 0.18457,0.0355 0.0336,0.0646 -0.33559,0.0646 -0.36914,0 -0.52015,-0.0291 -0.33558,-0.0646 z m -9.247221,-0.14267 c 0.10254,-0.0414 0.270333,-0.0414 0.372872,0 0.10254,0.0414 0.01864,0.0752 -0.186436,0.0752 -0.205079,0 -0.288975,-0.0339 -0.186436,-0.0752 z m 12.826791,0 c 0.10254,-0.0414 0.27033,-0.0414 0.37287,0 0.10254,0.0414 0.0186,0.0752 -0.18644,0.0752 -0.20508,0 -0.28897,-0.0339 -0.18643,-0.0752 z M 90.468858,216.7137 c 0.107666,-0.0431 0.236308,-0.0378 0.285869,0.0118 0.04956,0.0496 -0.03853,0.0848 -0.195758,0.0784 -0.173751,-0.007 -0.209091,-0.0425 -0.09011,-0.0901 z m 17.002952,0 c 0.10767,-0.0431 0.23631,-0.0378 0.28587,0.0118 0.0496,0.0496 -0.0385,0.0848 -0.19576,0.0784 -0.17375,-0.007 -0.20909,-0.0425 -0.0901,-0.0901 z m 37.09142,-5.26747 c 0.14848,-0.16407 0.30351,-0.2983 0.34453,-0.2983 0.041,0 -0.0469,0.13423 -0.19538,0.2983 -0.14848,0.16406 -0.30352,0.29829 -0.34453,0.29829 -0.041,0 0.0469,-0.13423 0.19538,-0.29829 z m 1.34234,-1.49149 c 0.14847,-0.16406 0.30351,-0.2983 0.34453,-0.2983 0.041,0 -0.0469,0.13424 -0.19538,0.2983 -0.14848,0.16406 -0.30352,0.2983 -0.34453,0.2983 -0.041,0 0.0469,-0.13424 0.19538,-0.2983 z m 3.02026,-0.0988 c 0.10254,-0.0414 0.27033,-0.0414 0.37287,0 0.10254,0.0414 0.0187,0.0752 -0.18643,0.0752 -0.20508,0 -0.28898,-0.0338 -0.18644,-0.0752 z m -1.03472,-0.15225 c 0.10767,-0.0431 0.23631,-0.0378 0.28587,0.0118 0.0496,0.0496 -0.0385,0.0848 -0.19576,0.0783 -0.17375,-0.007 -0.20909,-0.0425 -0.0901,-0.0901 z m -4.43472,-0.28342 c 0.007,-0.17375 0.0425,-0.20909 0.0901,-0.0901 0.0431,0.10766 0.0378,0.23631 -0.0118,0.28587 -0.0496,0.0496 -0.0848,-0.0385 -0.0783,-0.19576 z m 3.24153,0.13427 c 0.10767,-0.0431 0.23631,-0.0378 0.28587,0.0118 0.0496,0.0496 -0.0385,0.0848 -0.19576,0.0783 -0.17375,-0.007 -0.20909,-0.0425 -0.0901,-0.0901 z m -3.37338,-5.04375 c 0.003,-0.24609 0.0365,-0.32871 0.0743,-0.1836 0.0378,0.14512 0.0353,0.34647 -0.006,0.44745 -0.0409,0.10098 -0.0718,-0.0178 -0.0687,-0.26385 z m 0.14362,-1.41691 c 0,-0.20508 0.0339,-0.28898 0.0752,-0.18644 0.0414,0.10254 0.0414,0.27033 0,0.37287 -0.0414,0.10254 -0.0752,0.0187 -0.0752,-0.18643 z m 0.78976,-0.33559 -0.58958,-0.63388 0.63388,0.58958 c 0.5895,0.5483 0.70242,0.67819 0.58958,0.67819 -0.0244,0 -0.30962,-0.28525 -0.63388,-0.63389 z m -90.023258,-0.52202 c -0.185522,-0.23656 -0.180246,-0.24183 0.05631,-0.0563 0.143555,0.11259 0.26101,0.23004 0.26101,0.26101 0,0.12276 -0.12248,0.0437 -0.317323,-0.2047 z m -2.684677,-2.68467 c -0.185521,-0.23656 -0.180246,-0.24184 0.05631,-0.0563 0.248444,0.19485 0.327453,0.31733 0.204698,0.31733 -0.03097,0 -0.148426,-0.11746 -0.261011,-0.26101 z m 75.350895,-3.40557 c 0.007,-0.17375 0.0425,-0.20909 0.0901,-0.0901 0.0431,0.10767 0.0378,0.23631 -0.0118,0.28587 -0.0496,0.0496 -0.0848,-0.0385 -0.0783,-0.19576 z m -0.14915,-2.23723 c 0.007,-0.17375 0.0425,-0.20909 0.0901,-0.0901 0.0431,0.10767 0.0378,0.23631 -0.0118,0.28587 -0.0496,0.0496 -0.0848,-0.0385 -0.0783,-0.19576 z m -0.13184,-2.67224 c 0.003,-0.2461 0.0365,-0.32872 0.0743,-0.1836 0.0378,0.14512 0.0353,0.34647 -0.006,0.44744 -0.0409,0.10098 -0.0718,-0.0177 -0.0688,-0.26384 z m -0.13353,-3.95244 c 0,-0.45118 0.028,-0.63575 0.0621,-0.41016 0.0342,0.22558 0.0342,0.59473 0,0.82031 -0.0342,0.22559 -0.0621,0.041 -0.0621,-0.41015 z m -0.004,-7.75574 c 0,-0.36914 0.0291,-0.52015 0.0646,-0.33558 0.0356,0.18457 0.0356,0.4866 0,0.67117 -0.0356,0.18457 -0.0646,0.0336 -0.0646,-0.33559 z m 0.13208,-3.57957 c 0,-0.20508 0.0339,-0.28897 0.0752,-0.18643 0.0414,0.10254 0.0414,0.27033 0,0.37287 -0.0414,0.10254 -0.0752,0.0186 -0.0752,-0.18644 z m 34.47602,-1.41691 c 8.9e-4,-0.49219 0.0287,-0.67556 0.0619,-0.40749 0.0332,0.26808 0.0325,0.67078 -0.002,0.8949 -0.034,0.22411 -0.0612,0.005 -0.0603,-0.48741 z m -34.33865,-0.75817 c 0.007,-0.17375 0.0425,-0.20909 0.0901,-0.0901 0.0431,0.10766 0.0378,0.23631 -0.0118,0.28587 -0.0496,0.0496 -0.0848,-0.0385 -0.0783,-0.19576 z m 42.39892,-4.79912 c 0.0542,-0.0877 0.0142,-0.19345 -0.0888,-0.23499 -0.11303,-0.0456 -0.0838,-0.0802 0.0737,-0.0873 0.29515,-0.0133 0.34907,0.2145 0.0888,0.37534 -0.10178,0.0629 -0.1319,0.0412 -0.0736,-0.053 z M 37.63897,163.29605 c -0.04225,-0.0684 0.01796,-0.12429 0.133785,-0.12429 0.115831,0 0.176034,0.0559 0.133785,0.12429 -0.04225,0.0684 -0.102452,0.12429 -0.133785,0.12429 -0.03133,0 -0.09154,-0.0559 -0.133785,-0.12429 z m 5.913298,-2.96149 c 0.143555,-0.0375 0.378464,-0.0375 0.52202,0 0.143556,0.0375 0.0261,0.0682 -0.26101,0.0682 -0.287111,0 -0.404566,-0.0307 -0.26101,-0.0682 z m -2.011769,-0.15183 c 0.185528,-0.0357 0.453995,-0.0343 0.596595,0.003 0.1426,0.0373 -0.0092,0.0665 -0.337324,0.0649 -0.328127,-0.002 -0.444798,-0.0322 -0.259271,-0.0679 z M 20.557854,155.8759 c 0.0072,-0.17375 0.0425,-0.20909 0.09011,-0.0901 0.04309,0.10767 0.03779,0.23631 -0.01178,0.28587 -0.04956,0.0496 -0.08481,-0.0385 -0.07834,-0.19576 z m 167.792286,0 c 0.007,-0.17375 0.0425,-0.20909 0.0901,-0.0901 0.0431,0.10767 0.0378,0.23631 -0.0118,0.28587 -0.0496,0.0496 -0.0848,-0.0385 -0.0784,-0.19576 z M 36.092844,155.47971 c 0.103633,-0.22107 0.212993,-0.33043 0.243023,-0.24302 0.03003,0.0874 -0.05476,0.26828 -0.188424,0.40194 -0.2246,0.2246 -0.228739,0.21255 -0.0546,-0.15892 z m 3.478293,-1.59098 c -0.04597,-0.0744 0.05074,-0.10011 0.21492,-0.0572 0.348261,0.0911 0.392283,0.19241 0.08358,0.19241 -0.118206,0 -0.252533,-0.0608 -0.298503,-0.13524 z m -19.150657,-0.3122 c 0,-0.20508 0.03385,-0.28898 0.07523,-0.18644 0.04138,0.10254 0.04138,0.27033 0,0.37287 -0.04138,0.10254 -0.07523,0.0187 -0.07523,-0.18643 z m 168.0906,0 c 0,-0.20508 0.0339,-0.28898 0.0752,-0.18644 0.0414,0.10254 0.0414,0.27033 0,0.37287 -0.0414,0.10254 -0.0752,0.0187 -0.0752,-0.18643 z M 36.400536,152.53249 c 0,-0.45118 0.02796,-0.63575 0.06213,-0.41016 0.03417,0.22558 0.03417,0.59473 0,0.82032 -0.03417,0.22558 -0.06213,0.041 -0.06213,-0.41016 z m 2.173512,0.48473 c -0.185522,-0.23656 -0.180247,-0.24183 0.05631,-0.0563 0.248445,0.19484 0.327453,0.31732 0.204698,0.31732 -0.03097,0 -0.148425,-0.11745 -0.26101,-0.26101 z m -0.894893,-0.74574 c -0.185521,-0.23656 -0.180246,-0.24184 0.05631,-0.0563 0.248444,0.19485 0.327453,0.31733 0.204698,0.31733 -0.03097,0 -0.148426,-0.11746 -0.261011,-0.26101 z m -0.894892,-0.74575 c -0.185521,-0.23656 -0.180246,-0.24183 0.05631,-0.0563 0.248444,0.19484 0.327453,0.31732 0.204697,0.31732 -0.03097,0 -0.148425,-0.11745 -0.26101,-0.26101 z m -16.358256,-6.9727 c 0.003,-0.24609 0.03647,-0.32871 0.07428,-0.1836 0.03782,0.14512 0.03533,0.34647 -0.0055,0.44745 -0.04086,0.10098 -0.0718,-0.0178 -0.06876,-0.26385 z m 168.090583,0 c 0.003,-0.24609 0.0365,-0.32871 0.0743,-0.1836 0.0378,0.14512 0.0353,0.34647 -0.006,0.44745 -0.0409,0.10098 -0.0718,-0.0178 -0.0688,-0.26385 z m -34.36233,-8.84507 c -5.14297,-4.56424 -9.33658,-8.3129 -9.31912,-8.33036 0.0175,-0.0175 0.76883,0.0934 1.6697,0.24629 4.54858,0.7721 8.53438,0.73424 11.17535,-0.10616 l 0.73762,-0.23472 0.91425,0.96499 c 1.48867,1.57132 2.62204,4.20199 3.42623,7.9527 0.55272,2.57783 1.14396,7.84288 0.87795,7.81809 -0.0721,-0.007 -4.33901,-3.74659 -9.48198,-8.31083 z m -133.596406,6.59541 c 0.0072,-0.17375 0.0425,-0.20909 0.09011,-0.0901 0.04309,0.10767 0.03779,0.23631 -0.01178,0.28587 -0.04956,0.0496 -0.08481,-0.0385 -0.07834,-0.19576 z m 167.792286,0 c 0.007,-0.17375 0.0425,-0.20909 0.0901,-0.0901 0.0431,0.10767 0.0378,0.23631 -0.0118,0.28587 -0.0496,0.0496 -0.0848,-0.0385 -0.0784,-0.19576 z m -18.89988,-12.44149 c 0,-0.7793 0.0251,-1.0981 0.0559,-0.70845 0.0307,0.38965 0.0307,1.02726 0,1.41691 -0.0307,0.38965 -0.0559,0.0708 -0.0559,-0.70846 z m -33.7804,-2.34909 c -0.18553,-0.23656 -0.18025,-0.24183 0.0563,-0.0563 0.14355,0.11258 0.26101,0.23004 0.26101,0.26101 0,0.12275 -0.12248,0.0437 -0.31732,-0.2047 z m 34.10909,-1.57249 c 0.056,-0.1471 0.13941,-0.22987 0.18533,-0.18395 0.0459,0.0459 9e-5,0.16627 -0.10183,0.26744 -0.1473,0.1462 -0.16444,0.12907 -0.0835,-0.0835 z m 3.00735,-0.36223 c 0.26477,-0.0329 0.73458,-0.0335 1.04404,-10e-4 0.30945,0.0323 0.0928,0.0592 -0.48141,0.0599 -0.57422,5.9e-4 -0.8274,-0.0258 -0.56263,-0.0587 z m -40.67993,-1.794 -1.41397,-1.4542 1.4542,1.41397 c 1.35065,1.31328 1.52205,1.49443 1.41397,1.49443 -0.0221,0 -0.67652,-0.65439 -1.4542,-1.4542 z m 23.44284,1.00676 c 0,-0.20508 0.0339,-0.28898 0.0752,-0.18644 0.0414,0.10254 0.0414,0.27033 0,0.37287 -0.0414,0.10254 -0.0752,0.0186 -0.0752,-0.18643 z m 15.17059,-1.30505 c -0.18551,-0.23656 -0.18025,-0.24184 0.0563,-0.0563 0.24843,0.19485 0.32745,0.31733 0.20469,0.31733 -0.031,0 -0.14842,-0.11746 -0.26101,-0.26101 z m -129.768313,-3.2713 c 0.107666,-0.0431 0.236307,-0.0378 0.285869,0.0118 0.04956,0.0496 -0.03853,0.0848 -0.195758,0.0783 -0.173751,-0.007 -0.209091,-0.0425 -0.09011,-0.0901 z m 4.474461,0 c 0.107666,-0.0431 0.236307,-0.0378 0.285869,0.0118 0.04956,0.0496 -0.03853,0.0848 -0.195758,0.0783 -0.17375,-0.007 -0.209091,-0.0425 -0.09011,-0.0901 z m -5.518502,-0.14915 c 0.107666,-0.0431 0.236307,-0.0378 0.285869,0.0118 0.04956,0.0496 -0.03853,0.0848 -0.195758,0.0783 -0.173751,-0.007 -0.209091,-0.0425 -0.09011,-0.0901 z m 6.562543,0 c 0.107666,-0.0431 0.236307,-0.0378 0.285869,0.0118 0.04956,0.0496 -0.03853,0.0848 -0.195758,0.0783 -0.17375,-0.007 -0.209091,-0.0425 -0.09011,-0.0901 z m -7.42947,-0.16422 c 0,-0.0643 0.385922,-0.48381 0.857605,-0.93218 l 0.857605,-0.81522 -0.786875,0.8289 c -0.432782,0.4559 -0.740401,0.87538 -0.6836,0.93218 0.0568,0.0568 0.02497,0.10328 -0.07073,0.10328 -0.0957,0 -0.174008,-0.0526 -0.174008,-0.11696 z m 7.387795,-1.07311 -1.039109,-1.12174 1.106826,1.07576 c 0.608753,0.59167 1.076352,1.09645 1.039107,1.12174 -0.03724,0.0253 -0.535316,-0.4588 -1.106824,-1.07576 z m 67.524986,-6.51987 c 0.14511,-0.0378 0.34646,-0.0353 0.44744,0.006 0.10098,0.0409 -0.0177,0.0718 -0.26385,0.0687 -0.24609,-0.003 -0.32871,-0.0365 -0.18359,-0.0743 z m 1.26492,0.005 c 0.10254,-0.0414 0.27033,-0.0414 0.37287,0 0.10254,0.0414 0.0187,0.0752 -0.18643,0.0752 -0.20508,0 -0.28898,-0.0339 -0.18644,-0.0752 z m 10.6504,-0.34866 c 0,-0.20508 0.0338,-0.28898 0.0752,-0.18644 0.0414,0.10254 0.0414,0.27033 0,0.37287 -0.0414,0.10254 -0.0752,0.0187 -0.0752,-0.18643 z m -48.422308,-7.30829 c 0.148476,-0.16406 0.303514,-0.2983 0.34453,-0.2983 0.04102,0 -0.04691,0.13424 -0.195382,0.2983 -0.148476,0.16406 -0.303514,0.2983 -0.34453,0.2983 -0.04102,0 0.04691,-0.13424 0.195382,-0.2983 z m 3.057548,-3.03929 c 0,-0.031 0.117455,-0.14842 0.26101,-0.26101 0.236559,-0.18552 0.241834,-0.18024 0.05631,0.0563 -0.194844,0.24844 -0.317323,0.32745 -0.317323,0.20469 z m 75.89767,-1.994478 c -0.18552,-0.236559 -0.18025,-0.241834 0.0563,-0.05631 0.24844,0.194843 0.32745,0.317322 0.2047,0.317322 -0.031,0 -0.14843,-0.117454 -0.26101,-0.26101 z m -14.53236,-0.969466 -0.43806,-0.484734 0.48473,0.438063 c 0.2666,0.240935 0.48473,0.459065 0.48473,0.484734 0,0.115226 -0.12306,0.01378 -0.5314,-0.438063 z m 13.78661,0.07457 c -0.18552,-0.236559 -0.18024,-0.241834 0.0563,-0.05631 0.24844,0.194844 0.32745,0.317323 0.20469,0.317323 -0.031,0 -0.14842,-0.117454 -0.26101,-0.26101 z m -0.89489,-1.044041 c -0.18552,-0.236559 -0.18025,-0.241834 0.0563,-0.05631 0.24845,0.194844 0.32746,0.317323 0.2047,0.317323 -0.031,0 -0.14842,-0.117454 -0.26101,-0.26101 z M 150.9933,97.5236 c -0.0415,-0.06719 0.12231,-0.09313 0.36407,-0.05765 0.24177,0.03548 0.43957,0.09046 0.43957,0.122162 0,0.113648 -0.72973,0.05506 -0.80364,-0.06452 z m 1.73866,-0.130346 c 0.14512,-0.03781 0.34647,-0.03533 0.44745,0.0055 0.10097,0.04086 -0.0178,0.0718 -0.26385,0.06876 -0.2461,-0.003 -0.32872,-0.03647 -0.1836,-0.07428 z m 1.4234,-0.147675 c 0.10766,-0.04308 0.2363,-0.03779 0.28587,0.01177 0.0496,0.04956 -0.0385,0.08481 -0.19576,0.07834 -0.17375,-0.0072 -0.20909,-0.0425 -0.0901,-0.09011 z m 3.64213,-4.521725 c 0,-0.287111 0.0307,-0.404565 0.0682,-0.26101 0.0375,0.143556 0.0375,0.378465 0,0.522021 -0.0375,0.143555 -0.0682,0.0261 -0.0682,-0.261011 z m -2.6447,-1.044041 c 0.14847,-0.164063 0.30351,-0.298297 0.34453,-0.298297 0.041,0 -0.0469,0.134234 -0.19538,0.298297 -0.14848,0.164064 -0.30352,0.298298 -0.34453,0.298298 -0.041,0 0.0469,-0.134234 0.19538,-0.298298 z m 2.49555,-1.044041 c 0,-0.287111 0.0307,-0.404565 0.0682,-0.26101 0.0375,0.143556 0.0375,0.378465 0,0.522021 -0.0375,0.143555 -0.0682,0.0261 -0.0682,-0.261011 z m -1.15321,-0.149148 c 0.14847,-0.164064 0.30351,-0.298298 0.34453,-0.298298 0.041,0 -0.0469,0.134234 -0.19538,0.298298 -0.14848,0.164063 -0.30352,0.298297 -0.34454,0.298297 -0.041,0 0.0469,-0.134234 0.19539,-0.298297 z m -46.49711,-2.18686 c 0.10254,-0.04138 0.27033,-0.04138 0.37287,0 0.10254,0.04138 0.0186,0.07523 -0.18644,0.07523 -0.20508,0 -0.28897,-0.03385 -0.18643,-0.07523 z m 5.5185,0 c 0.10254,-0.04138 0.27033,-0.04138 0.37287,0 0.10254,0.04138 0.0186,0.07523 -0.18643,0.07523 -0.20508,0 -0.28898,-0.03385 -0.18644,-0.07523 z M 78.301232,83.774932 c 0,-0.287111 0.03069,-0.404566 0.06821,-0.26101 0.03751,0.143555 0.03751,0.378465 0,0.52202 -0.03752,0.143556 -0.06821,0.0261 -0.06821,-0.26101 z m -0.351925,-1.155903 c -0.185522,-0.236558 -0.180247,-0.241834 0.05631,-0.05631 0.248445,0.194843 0.327453,0.317323 0.204698,0.317323 -0.03097,0 -0.148426,-0.117455 -0.26101,-0.261011 z m 4.344338,-0.839343 c 0,-0.03097 0.117454,-0.148425 0.26101,-0.26101 0.236559,-0.185522 0.241834,-0.180246 0.05631,0.05631 -0.194843,0.248445 -0.317322,0.327453 -0.317322,0.204698 z M 81.43809,80.83408 c 0.226715,-0.03428 0.5623,-0.03337 0.745744,0.002 0.183444,0.0354 -0.0021,0.06345 -0.41221,0.06233 -0.410159,-0.0012 -0.560249,-0.03009 -0.333534,-0.06437 z m 31.47117,-6.409727 c 0.14511,-0.03781 0.34646,-0.03533 0.44744,0.0055 0.10098,0.04086 -0.0178,0.0718 -0.26385,0.06876 -0.24609,-0.003 -0.32871,-0.03647 -0.18359,-0.07428 z m -1.38247,-0.549548 c 0,-0.03097 0.11746,-0.148426 0.26101,-0.26101 0.23656,-0.185522 0.24184,-0.180246 0.0563,0.05631 -0.19484,0.248444 -0.31732,0.327453 -0.31732,0.204698 z m 5.35033,-0.950442 c -0.18552,-0.236558 -0.18025,-0.241833 0.0563,-0.05631 0.24845,0.194843 0.32745,0.317322 0.2047,0.317322 -0.031,0 -0.14843,-0.117455 -0.26101,-0.261011 z m -0.72256,-0.554293 c -0.0998,-0.120289 -0.15838,-0.285888 -0.13012,-0.367996 0.0283,-0.08211 0.12897,0.01631 0.22379,0.218709 0.19655,0.419538 0.16817,0.464777 -0.0937,0.149287 z m 0.0304,-2.018522 c 0,-0.287111 0.0307,-0.404566 0.0682,-0.26101 0.0375,0.143556 0.0375,0.378465 0,0.52202 -0.0375,0.143556 -0.0682,0.0261 -0.0682,-0.26101 z M 97.329699,65.178607 c 0.107666,-0.04309 0.236308,-0.03779 0.285868,0.01177 0.04956,0.04956 -0.03853,0.08481 -0.195757,0.07834 -0.173751,-0.0072 -0.209092,-0.0425 -0.09011,-0.09011 z m 14.169131,0 c 0.10766,-0.04309 0.2363,-0.03779 0.28586,0.01177 0.0496,0.04956 -0.0385,0.08481 -0.19575,0.07834 -0.17375,-0.0072 -0.20909,-0.0425 -0.0901,-0.09011 z M 99.408459,65.032565 c 0.102539,-0.04138 0.270332,-0.04138 0.372872,0 0.102539,0.04138 0.01864,0.07523 -0.186436,0.07523 -0.20508,0 -0.288976,-0.03385 -0.186436,-0.07523 z m 9.843811,0 c 0.10254,-0.04138 0.27034,-0.04138 0.37288,0 0.10253,0.04138 0.0186,0.07523 -0.18644,0.07523 -0.20508,0 -0.28898,-0.03385 -0.18644,-0.07523 z m -5.5185,-0.160329 c 0.43067,-0.03013 1.1354,-0.03013 1.56606,0 0.43067,0.03013 0.0783,0.05478 -0.78303,0.05478 -0.86133,0 -1.2137,-0.02465 -0.78303,-0.05478 z"
         id="path197" />
      <path
         style="fill:#9f5ba4;stroke-width:0.149149"
         d="m 101.01181,230.14546 c -3.782104,-0.17825 -8.708001,-0.78982 -12.528494,-1.55548 -13.241054,-2.65363 -25.473637,-8.55298 -36.172231,-17.44461 -2.368298,-1.9683 -7.840998,-7.43509 -9.782962,-9.7724 -10.877818,-13.09231 -17.052876,-27.81218 -18.799471,-44.81347 -0.352157,-3.42788 -0.351821,-11.49262 6.22e-4,-14.91487 1.091614,-10.59967 3.645921,-19.55269 8.170037,-28.63655 6.496898,-13.044962 16.03443,-23.782923 28.256456,-31.812921 21.09781,-13.861478 47.670793,-17.034068 71.545333,-8.541907 16.42767,5.843313 30.54065,16.870448 40.38545,31.555048 3.72949,5.56296 7.39175,13.09272 9.47326,19.47745 5.48018,16.80967 5.42901,34.39369 -0.14884,51.14447 -3.22744,9.6923 -8.07015,18.31589 -14.90549,26.54275 -1.94196,2.33731 -7.41466,7.8041 -9.78296,9.7724 -13.04275,10.83987 -28.11796,17.12504 -44.8806,18.71167 -2.44254,0.23119 -8.57755,0.39457 -10.83011,0.28842 z m 4.39988,-4.12307 c 0,-0.77797 0.007,-0.78995 0.67117,-1.15278 0.36915,-0.20165 0.67117,-0.41164 0.67117,-0.46664 0,-0.055 -0.33169,-0.21927 -0.73708,-0.36504 -0.68535,-0.24646 -0.74411,-0.3077 -0.83711,-0.8726 -0.16952,-1.02957 -0.26538,-1.0742 -0.81549,-0.37964 -0.49518,0.62523 -0.50215,0.62818 -1.29132,0.54673 -0.4364,-0.045 -0.79346,-0.0352 -0.79346,0.0219 0,0.0571 0.17412,0.35999 0.38693,0.67317 0.40178,0.59127 0.40179,0.69672 1.5e-4,1.6252 -0.27139,0.62739 -0.25034,0.63855 0.67806,0.35914 0.65893,-0.19831 0.67045,-0.19554 1.24174,0.29829 0.31715,0.27417 0.63257,0.49847 0.70094,0.49847 0.0684,0 0.1243,-0.35376 0.1243,-0.78615 z m 1.56607,-9.20906 c 7.04786,-0.57804 14.50016,-1.76416 19.91135,-3.16911 l 1.86436,-0.48405 -0.0207,-0.44682 c -0.0114,-0.24574 -0.195,-1.78914 -0.40804,-3.42978 -2.40439,-18.5161 -2.43476,-34.35619 -0.0875,-45.64322 1.36963,-6.58604 3.55473,-11.90488 6.50026,-15.82254 1.76291,-2.34474 3.74396,-4.15845 7.06535,-6.46854 1.99298,-1.38616 2.23197,-1.89629 1.63536,-3.49086 -0.96197,-2.5711 -4.26417,-6.78087 -10.13831,-12.92472 l -2.50153,-2.61638 8.63494,-5.85736 c 4.74921,-3.22155 8.63493,-5.94935 8.63493,-6.06178 0,-0.11243 -0.10099,-0.6845 -0.22442,-1.27128 -1.38521,-6.5851 -6.52461,-12.466509 -14.39215,-16.470066 -3.50526,-1.783722 -5.86766,-2.563046 -10.36583,-3.419544 -4.032,-0.767736 -5.53761,-0.901324 -10.14212,-0.89988 -4.79604,0.0015 -6.71606,0.20642 -10.58955,1.130186 -11.324966,2.700821 -21.467474,9.952409 -30.097366,21.518714 -11.596381,15.54217 -20.596315,39.18314 -25.756709,67.65756 -0.675108,3.72516 -1.642756,10.24295 -1.642756,11.06511 0,0.61632 0.596125,1.69939 2.400538,4.36143 3.168725,4.6748 7.747611,9.28289 12.365184,12.44406 5.502102,3.76671 11.7997,6.5121 19.01646,8.29009 4.864102,1.19835 9.334157,1.82626 15.809763,2.22079 1.642846,0.1001 10.563786,-0.0509 12.528496,-0.21201 z m 37.66611,-5.32982 c 0.26643,-0.30762 0.77041,-0.86844 1.11994,-1.24627 l 0.63552,-0.68696 1.39376,0.19698 c 2.28097,0.32237 2.17978,0.43416 1.18009,-1.30365 l -0.8693,-1.51113 0.72066,-1.50396 c 0.39636,-0.82718 0.69312,-1.53149 0.65947,-1.56515 -0.0337,-0.0336 -0.80585,0.0931 -1.71599,0.28163 l -1.65482,0.34282 -1.18066,-1.17374 c -0.64937,-0.64556 -1.22324,-1.13117 -1.27527,-1.07914 -0.052,0.052 -0.1669,0.82627 -0.25525,1.72053 l -0.16064,1.62593 -1.46444,0.79359 c -0.80545,0.43647 -1.46445,0.83784 -1.46445,0.89193 0,0.0541 0.68621,0.39905 1.5249,0.7666 l 1.5249,0.66827 0.29774,1.67051 c 0.16376,0.91879 0.34312,1.67052 0.39858,1.67052 0.0555,0 0.31883,-0.25169 0.58526,-0.55931 z m 18.44978,-36.30194 1.22918,-0.86912 1.81111,0.67388 c 0.99611,0.37064 1.84144,0.64355 1.87852,0.60647 0.0371,-0.0371 -0.17329,-0.85425 -0.46747,-1.81594 -0.29418,-0.96169 -0.53488,-1.81012 -0.53488,-1.88541 0,-0.0753 0.53694,-0.79991 1.19319,-1.61027 0.65625,-0.81036 1.19319,-1.51101 1.19319,-1.55701 0,-0.046 -0.8893,-0.0853 -1.97622,-0.0873 l -1.97622,-0.004 -1.09164,-1.65153 c -0.60041,-0.90834 -1.13515,-1.60802 -1.18831,-1.55486 -0.0532,0.0532 -0.37176,0.8819 -0.70798,1.84162 l -0.61132,1.74495 -1.80719,0.52202 c -0.99395,0.28711 -1.84798,0.56389 -1.89784,0.61506 -0.0499,0.0512 0.6133,0.61665 1.4737,1.25662 l 1.56435,1.16358 -0.0913,2.02057 -0.0913,2.02058 0.43466,-0.28058 c 0.23906,-0.15432 0.98779,-0.67168 1.66383,-1.1497 z m -123.910349,-13.52633 1.234638,-1.54139 0.840064,0.0829 c 2.807815,0.27705 3.349405,0.28355 3.255607,0.0391 -0.04993,-0.13011 -0.563798,-0.94159 -1.141933,-1.80329 l -1.051152,-1.56671 0.752704,-1.8867 c 0.413987,-1.03767 0.733078,-1.93534 0.70909,-1.99481 -0.02399,-0.0595 -0.849019,0.11577 -1.8334,0.3894 -0.984381,0.27364 -1.901175,0.49832 -2.037318,0.4993 -0.136143,0.001 -0.928301,-0.57637 -1.760353,-1.28299 -0.832053,-0.70662 -1.559624,-1.23798 -1.616827,-1.18081 -0.0572,0.0572 -0.138194,0.95413 -0.179981,1.99323 -0.04179,1.03909 -0.125296,1.96612 -0.185579,2.06007 -0.06028,0.0939 -0.848276,0.62996 -1.751096,1.19115 -0.90282,0.56119 -1.641492,1.06375 -1.641492,1.1168 0,0.0531 0.868179,0.42024 1.929285,0.81598 l 1.929285,0.71951 0.478327,1.94531 c 0.263081,1.06993 0.509907,2.0015 0.548504,2.07018 0.08269,0.14712 -0.02765,0.26795 1.521627,-1.66624 z M 163.66776,142.80053 c -0.57987,-7.16409 -2.06801,-12.15894 -4.3357,-14.55253 l -0.91425,-0.96499 -0.73762,0.23472 c -2.64097,0.8404 -6.62677,0.87826 -11.17535,0.10616 -0.90087,-0.15292 -1.65224,-0.26375 -1.6697,-0.24629 -0.0568,0.0568 18.66596,16.62861 18.8011,16.64119 0.0731,0.007 0.087,-0.53257 0.0315,-1.21826 z m -5.21989,-0.83526 c -0.1105,-0.1788 -17.51836,-14.55297 -17.70126,-14.61644 -0.0826,-0.0287 1.17017,2.58951 2.78387,5.81814 l 2.934,5.87025 5.83564,1.51418 c 6.06684,1.57416 6.27663,1.62241 6.14775,1.41387 z m 12.11586,-11.40589 c 0.46545,-0.35466 0.92905,-0.69352 1.03023,-0.75301 0.10118,-0.0595 0.72547,0.0629 1.38732,0.27196 0.66185,0.20908 1.26299,0.38015 1.33585,0.38015 0.0729,0 -0.0764,-0.58728 -0.33169,-1.30505 l -0.4642,-1.30505 0.77144,-1.05622 c 0.4243,-0.58091 0.77146,-1.10107 0.77146,-1.1559 0,-0.0548 -0.62083,-0.1013 -1.37962,-0.10326 l -1.37963,-0.004 -0.8111,-1.14307 -0.8111,-1.14306 -0.45666,1.40025 -0.45667,1.40025 -1.19319,0.35585 c -0.65625,0.19571 -1.23798,0.40039 -1.29273,0.45484 -0.0548,0.0544 0.39692,0.43457 1.0037,0.84473 l 1.10324,0.74574 0.003,1.37963 c 0.002,0.88336 0.0608,1.37963 0.16354,1.37963 0.0882,0 0.54129,-0.29018 1.00675,-0.64484 z m -15.01165,-4.98552 c 0.17446,-3.6927 -0.8954,-7.37603 -3.17713,-10.93831 -1.27434,-1.98953 -0.31058,-2.38104 -8.11052,3.2948 -3.74281,2.72356 -6.76232,4.99543 -6.71004,5.04859 0.0872,0.0887 17.11486,3.10775 17.71026,3.14006 0.20038,0.0109 0.26715,-0.11576 0.28743,-0.54514 z m -111.529427,-3.88659 0.659814,-1.31377 1.386997,-0.18466 c 0.762848,-0.10157 1.419391,-0.21706 1.458984,-0.25666 0.0396,-0.0396 -0.401648,-0.55662 -0.980539,-1.14895 l -1.052528,-1.07697 0.24901,-1.37962 c 0.148602,-0.82333 0.190478,-1.37963 0.103851,-1.37963 -0.07984,0 -0.634319,0.26847 -1.232185,0.5966 -0.597864,0.32812 -1.171679,0.59659 -1.275147,0.59659 -0.103465,0 -0.715801,-0.27453 -1.360747,-0.61007 -0.644946,-0.33553 -1.208423,-0.57427 -1.252169,-0.53052 -0.04375,0.0437 0.0259,0.69574 0.154776,1.44888 l 0.234315,1.36935 -1.075569,1.01022 c -0.591564,0.55563 -1.041567,1.04554 -1.000005,1.08868 0.04156,0.0431 0.71273,0.16791 1.491487,0.27725 l 1.415921,0.1988 0.62848,1.30412 c 0.345664,0.71727 0.663797,1.30413 0.70696,1.30413 0.04316,0 0.375396,-0.59119 0.738294,-1.31377 z m 113.294717,-23.541857 0.33844,-1.663007 1.62687,-0.637521 c 0.89479,-0.350638 1.65193,-0.678049 1.68254,-0.727583 0.0306,-0.04953 -0.63628,-0.489241 -1.48197,-0.97713 l -1.53764,-0.887071 -0.0901,-0.749357 c -0.0495,-0.412146 -0.0973,-1.084941 -0.10623,-1.4951 -0.009,-0.410159 -0.0598,-0.890829 -0.11316,-1.068158 -0.10858,-0.360949 0.11238,-0.507983 -2.00647,1.335118 l -0.82129,0.714407 -1.72945,-0.437063 c -0.9512,-0.240385 -1.73014,-0.394075 -1.73099,-0.341535 -8.9e-4,0.05254 0.31064,0.81153 0.69218,1.686644 l 0.69371,1.591114 -0.93371,1.510772 c -0.51353,0.830925 -0.90111,1.54337 -0.86127,1.583212 0.0399,0.03984 0.8553,-0.0069 1.81213,-0.103934 1.52836,-0.154948 1.76178,-0.148463 1.92159,0.05338 1.06571,1.34604 2.11559,2.487619 2.20079,2.393025 0.0581,-0.06446 0.25785,-0.865559 0.44399,-1.780212 z m -78.083,-13.56861 c 0.865606,-0.574731 0.885055,-0.575431 2.127095,-0.07664 0.886743,0.356107 0.888744,0.352978 0.559308,-0.87438 -0.1211,-0.451175 -0.220979,-0.865176 -0.221953,-0.920001 -0.001,-0.05483 0.303725,-0.457527 0.677108,-0.894892 0.660574,-0.773768 0.669621,-0.797824 0.335585,-0.892204 -0.188812,-0.05335 -0.68813,-0.103685 -1.109596,-0.111861 l -0.766301,-0.01487 -0.508812,-0.857605 c -0.279846,-0.471683 -0.566969,-0.845354 -0.638052,-0.830379 -0.07108,0.01497 -0.286677,0.414191 -0.479096,0.887148 -0.192419,0.472956 -0.425188,0.906479 -0.517262,0.963385 -0.09208,0.05691 -0.561125,0.187017 -1.04233,0.289136 -0.481208,0.102117 -0.874922,0.23606 -0.874922,0.297648 0,0.06159 0.35799,0.404736 0.795531,0.762551 l 0.795531,0.650574 -0.0694,1.081426 c -0.03817,0.594786 -0.02598,1.081428 0.02708,1.081428 0.05306,0 0.462783,-0.243211 0.910485,-0.540467 z m 36.01256,-9.260156 0.38211,-0.993818 1.01768,-0.256832 c 1.08639,-0.274171 1.30305,-0.387908 1.05368,-0.553148 -0.0861,-0.05706 -0.4785,-0.37041 -0.87196,-0.696325 l -0.71538,-0.592573 0.0984,-1.180488 0.0984,-1.180489 -0.41536,0.268247 c -0.22845,0.147535 -0.64908,0.425257 -0.93472,0.617158 -0.64799,0.43533 -0.68053,0.434509 -1.78636,-0.04508 -0.49966,-0.216694 -0.93914,-0.36331 -0.97664,-0.325814 -0.0375,0.0375 0.0636,0.528932 0.22463,1.092077 l 0.29281,1.023902 -0.36862,0.457815 c -0.20275,0.251798 -0.54566,0.675945 -0.76203,0.942548 l -0.39341,0.484733 h 0.52032 c 0.28618,0 0.83062,0.04253 1.20987,0.09451 0.65843,0.09025 0.7145,0.137184 1.24273,1.040172 0.30425,0.520113 0.58659,0.912261 0.62741,0.871439 0.0408,-0.04082 0.24617,-0.52144 0.45634,-1.06804 z M 47.821268,211.33436 c -0.185522,-0.23655 -0.180247,-0.24183 0.05631,-0.0563 0.143556,0.11259 0.26101,0.23004 0.26101,0.26101 0,0.12276 -0.122479,0.0437 -0.317322,-0.2047 z m 113.073742,0.2047 c 0,-0.031 0.11746,-0.14842 0.26101,-0.26101 0.23656,-0.18552 0.24184,-0.18024 0.0563,0.0563 -0.19485,0.24845 -0.31733,0.32746 -0.31733,0.2047 z m -115.970134,-2.96395 -0.589578,-0.63388 0.633882,0.58958 c 0.348635,0.32427 0.633882,0.60951 0.633882,0.63388 0,0.11284 -0.129886,-7e-5 -0.678186,-0.58958 z m 119.027684,0.0373 c 0.32041,-0.32813 0.61612,-0.59659 0.65714,-0.59659 0.041,0 -0.18758,0.26846 -0.50799,0.59659 -0.32041,0.32813 -0.61612,0.5966 -0.65713,0.5966 -0.041,0 0.18757,-0.26847 0.50798,-0.5966 z m -121.798943,-2.9457 c -0.185522,-0.23656 -0.180247,-0.24183 0.05631,-0.0563 0.143556,0.11259 0.26101,0.23004 0.26101,0.26101 0,0.12276 -0.122479,0.0437 -0.317322,-0.2047 z m 124.409043,0.2047 c 0,-0.031 0.11746,-0.14842 0.26101,-0.26101 0.23656,-0.18552 0.24184,-0.18025 0.0563,0.0563 -0.19485,0.24845 -0.31733,0.32746 -0.31733,0.2047 z m 0.57757,-112.96112 c -0.18552,-0.236559 -0.18024,-0.241834 0.0563,-0.05631 0.24844,0.194843 0.32745,0.317323 0.20469,0.317323 -0.031,0 -0.14842,-0.117455 -0.26101,-0.261011 z M 43.51498,91.008644 c 0.192663,-0.205079 0.383854,-0.372872 0.42487,-0.372872 0.04102,0 -0.08306,0.167793 -0.275721,0.372872 -0.192663,0.20508 -0.383853,0.372872 -0.424869,0.372872 -0.04102,0 0.08306,-0.167792 0.27572,-0.372872 z m 121.84321,-0.03729 -0.36159,-0.410159 0.41016,0.361583 c 0.38336,0.337954 0.47856,0.458735 0.36158,0.458735 -0.0267,0 -0.21128,-0.184572 -0.41015,-0.410159 z M 46.348806,88.174819 c 0.192663,-0.20508 0.383853,-0.372872 0.424869,-0.372872 0.04102,0 -0.08306,0.167792 -0.27572,0.372872 -0.192663,0.205079 -0.383854,0.372872 -0.42487,0.372872 -0.04102,0 0.08306,-0.167793 0.275721,-0.372872 z m 116.175554,-0.03729 -0.36158,-0.410159 0.41016,0.361582 c 0.22558,0.198872 0.41016,0.383444 0.41016,0.410159 0,0.116975 -0.12079,0.02177 -0.45874,-0.361582 z"
         id="path195" />
      <path
         style="fill:#744fa0;stroke-width:0.149149"
         d="m 100.11692,233.12838 c -12.277264,-0.79286 -22.82503,-3.58693 -33.259925,-8.81041 -5.97766,-2.9923 -11.153168,-6.39186 -16.560096,-10.8776 -2.483002,-2.05996 -8.046829,-7.62249 -10.125117,-10.12275 -11.835916,-14.23904 -18.385354,-30.58093 -19.636164,-48.99535 -0.219337,-3.22908 -0.09706,-10.37102 0.231099,-13.49796 2.082808,-19.84652 10.48163,-37.5213 24.431947,-51.415475 14.301499,-14.243943 33.125577,-22.796326 53.426764,-24.273493 2.685582,-0.19541 9.097162,-0.19541 11.782752,0 24.52506,1.784508 46.68053,13.858093 61.45474,33.489662 8.20814,10.906776 13.70621,23.964396 15.7903,37.501126 1.11782,7.26063 1.28366,15.4743 0.45697,22.63421 -1.54806,13.40778 -6.37278,26.41285 -13.90194,37.47272 -3.22528,4.73771 -5.96867,8.03403 -10.24754,12.31291 -6.73977,6.73976 -13.45917,11.60471 -21.7841,15.772 -9.41422,4.71256 -19.1144,7.49548 -29.75493,8.53651 -2.33564,0.2285 -10.2721,0.40518 -12.30476,0.2739 z m 11.725,-3.27134 c 15.13188,-1.43228 29.03688,-6.75319 41.07731,-15.71874 3.29198,-2.45128 5.53364,-4.40901 8.87921,-7.75459 4.41215,-4.41214 7.23331,-7.85143 10.48259,-12.77938 11.85299,-17.97655 16.0339,-39.93551 11.63531,-61.11104 -2.64803,-12.74807 -8.56861,-25.04864 -16.87629,-35.06217 C 156.5851,84.829425 142.64894,75.6605 127.15207,71.18788 c -14.89647,-4.299336 -30.374063,-4.299336 -45.270534,0 -16.928848,4.885908 -32.017933,15.406623 -42.558742,29.67366 -3.050621,4.12903 -5.10273,7.48676 -7.423483,12.14654 -4.524116,9.08386 -7.078423,18.03688 -8.170037,28.63655 -0.352443,3.42225 -0.352779,11.48699 -6.27e-4,14.91487 1.746595,17.00129 7.921654,31.72116 18.799471,44.81347 1.941964,2.33731 7.414664,7.8041 9.782962,9.7724 13.069869,10.8624 28.27443,17.1889 44.972005,18.7125 1.39454,0.12724 3.072465,0.25666 3.728715,0.28759 2.25257,0.10615 8.38757,-0.0572 10.83012,-0.28842 z m 6.3686,-111.43234 c 0.10766,-0.0431 0.23631,-0.0378 0.28587,0.0118 0.0496,0.0496 -0.0385,0.0848 -0.19576,0.0783 -0.17375,-0.007 -0.20909,-0.0425 -0.0901,-0.0901 z m -3.56289,-1.65062 -0.36159,-0.41016 0.41016,0.36159 c 0.22559,0.19887 0.41016,0.38344 0.41016,0.41016 0,0.11697 -0.12078,0.0218 -0.45873,-0.36159 z m -1.75495,-4.21345 c 0,-0.20508 0.0339,-0.28897 0.0752,-0.18643 0.0414,0.10254 0.0414,0.27033 0,0.37287 -0.0414,0.10254 -0.0752,0.0186 -0.0752,-0.18644 z m 0.54508,-0.25103 c 0.10767,-0.0431 0.23631,-0.0378 0.28587,0.0118 0.0496,0.0496 -0.0385,0.0848 -0.19576,0.0783 -0.17375,-0.007 -0.20909,-0.0425 -0.0901,-0.0901 z m 2.38638,0 c 0.10766,-0.0431 0.23631,-0.0378 0.28587,0.0118 0.0496,0.0496 -0.0385,0.0848 -0.19576,0.0783 -0.17375,-0.007 -0.20909,-0.0425 -0.0901,-0.0901 z m 8.21985,-5.23018 -0.36158,-0.41016 0.41016,0.36158 c 0.22559,0.19887 0.41016,0.38344 0.41016,0.41016 0,0.11697 -0.12078,0.0218 -0.45874,-0.36158 z m -4.78943,-2.07811 c 0.10766,-0.0431 0.23631,-0.0378 0.28587,0.0118 0.0496,0.0496 -0.0385,0.0848 -0.19576,0.0783 -0.17375,-0.007 -0.20909,-0.0425 -0.0901,-0.0901 z"
         id="path193" />
      <path
         style="fill:#010101;stroke-width:0.149149"
         d="m 117.90744,118.3729 c -1.58131,-0.26641 -3.18437,-1.33737 -3.94525,-2.63572 -0.46239,-0.789 -0.94397,-2.28351 -0.94376,-2.92882 l 1.4e-4,-0.47145 h 1.75235 c 2.19883,0 3.03412,-0.25481 3.89429,-1.18798 0.69034,-0.74894 0.83673,-1.29851 0.7328,-2.75102 -0.0504,-0.70407 -0.23148,-1.3733 -0.60617,-2.23995 l -0.53433,-1.23591 0.84809,0.10118 c 2.2377,0.26696 3.91515,0.99775 5.03275,2.19256 1.27062,1.3584 1.80123,3.09194 1.65879,5.41942 -0.088,1.4376 -0.72436,4.20163 -1.03275,4.48566 -0.1029,0.0948 -1.19384,0.45032 -2.42432,0.79011 -2.26224,0.6247 -3.00623,0.70224 -4.43263,0.46192 z"
         id="path191" />
    </g>
  </g>
</svg>
